<svg aria-hidden="true" style="width:0;height:0;position:absolute;overflow:hidden" xmlns="http://www.w3.org/2000/svg"><defs><symbol id="icon-avatar" viewBox="0 0 32 32"><path d="M16 .001C7.164.001 0 7.164 0 16s7.164 15.999 16 15.999c8.837 0 16-7.163 16-15.999S24.837.001 16 .001zm0 4.784a5.292 5.292 0 1 1 .001 10.585A5.292 5.292 0 0 1 16 4.785zm-.004 23.031a11.738 11.738 0 0 1-7.646-2.82 2.255 2.255 0 0 1-.791-1.714c0-2.964 2.399-5.336 5.363-5.336h6.158a5.33 5.33 0 0 1 5.355 5.336c0 .659-.288 1.285-.791 1.713a11.74 11.74 0 0 1-7.647 2.82z"/></symbol><symbol id="icon-close" viewBox="0 0 32 32"><path d="m4.053 30.933-2.987-2.987 11.947-11.947L1.066 4.052l2.987-2.987L16 13.012 27.947 1.065l2.987 2.987-11.947 11.947 11.947 11.947-2.987 2.987L16 18.986 4.053 30.933z"/></symbol><symbol id="icon-google" viewBox="0 0 32 32"><path fill="#4285f4" style="fill:var(--color1,#4285f4)" d="M32 16.364c0-1.135-.104-2.225-.297-3.273H16.326v6.189h8.787c-.378 2-1.529 3.695-3.258 4.829v4.015h5.276c3.087-2.785 4.868-6.887 4.868-11.76z"/><path fill="#34a853" style="fill:var(--color2,#34a853)" d="M16.327 32c4.408 0 8.104-1.433 10.805-3.876l-5.276-4.015c-1.462.96-3.332 1.527-5.529 1.527-4.252 0-7.852-2.815-9.135-6.596H1.737v4.145C4.423 28.414 9.945 32 16.327 32z"/><path fill="#fbbc05" style="fill:var(--color3,#fbbc05)" d="M7.191 19.04c-.327-.96-.512-1.985-.512-3.04s.186-2.08.512-3.04V8.815H1.736a15.733 15.733 0 0 0 0 14.371l5.455-4.145z"/><path fill="#ea4335" style="fill:var(--color4,#ea4335)" d="M16.327 6.364c2.397 0 4.549.807 6.241 2.393l4.683-4.589C24.424 1.586 20.728.001 16.327.001c-6.382 0-11.904 3.586-14.59 8.815l5.455 4.145c1.284-3.782 4.883-6.596 9.135-6.596z"/></symbol><symbol id="icon-logout" viewBox="0 0 30 32"><path fill="none" stroke="#003d29" style="stroke:var(--color1,#003d29)" stroke-linejoin="round" stroke-linecap="round" stroke-width="3.2" d="M10.667 28.8H4.978a2.845 2.845 0 0 1-2.844-2.844V6.045a2.845 2.845 0 0 1 2.844-2.844h5.689m9.955 19.91L27.733 16m0 0-7.111-7.111M27.733 16H10.666"/></symbol><symbol id="icon-phone" viewBox="0 0 32 32"><path fill="none" stroke="#003d29" style="stroke:var(--color1,#003d29)" stroke-linejoin="round" stroke-linecap="round" stroke-width="3" d="M20.067 7.667a6.666 6.666 0 0 1 5.266 5.266m-5.266-10.6a12 12 0 0 1 10.6 10.587m-1.333 10.64v4a2.654 2.654 0 0 1-.864 1.976 2.675 2.675 0 0 1-2.042.691 26.398 26.398 0 0 1-11.507-4.093 25.988 25.988 0 0 1-8-8 26.382 26.382 0 0 1-4.093-11.56 2.657 2.657 0 0 1 .687-2.038 2.664 2.664 0 0 1 1.967-.868h4a2.67 2.67 0 0 1 2.667 2.294 17.16 17.16 0 0 0 .933 3.747 2.675 2.675 0 0 1-.6 2.814l-1.693 1.693a21.333 21.333 0 0 0 8 8l1.693-1.693a2.671 2.671 0 0 1 2.813-.6 17.16 17.16 0 0 0 3.747.933 2.665 2.665 0 0 1 2.293 2.707z"/></symbol><symbol id="icon-settings" viewBox="0 0 30 32"><path fill="none" stroke="#003d29" style="stroke:var(--color1,#003d29)" stroke-linejoin="round" stroke-linecap="round" stroke-width="2.824" d="M15.059 19.765a3.765 3.765 0 1 0 0-7.53 3.765 3.765 0 0 0 0 7.53z"/><path fill="none" stroke="#003d29" style="stroke:var(--color1,#003d29)" stroke-linejoin="round" stroke-linecap="round" stroke-width="2.824" d="M24.346 19.765a2.069 2.069 0 0 0 .414 2.283l.075.075a2.525 2.525 0 0 1 .736 1.776 2.511 2.511 0 0 1-4.287 1.776l-.075-.075a2.074 2.074 0 0 0-2.283-.414 2.07 2.07 0 0 0-1.255 1.895v.213a2.509 2.509 0 1 1-5.02 0v-.113a2.071 2.071 0 0 0-1.355-1.895 2.069 2.069 0 0 0-2.283.414l-.075.075a2.525 2.525 0 0 1-1.776.736 2.515 2.515 0 0 1-2.321-1.55 2.515 2.515 0 0 1 .545-2.737l.075-.075a2.074 2.074 0 0 0 .414-2.283 2.07 2.07 0 0 0-1.895-1.255h-.213a2.509 2.509 0 1 1 0-5.02h.113a2.071 2.071 0 0 0 1.895-1.355 2.069 2.069 0 0 0-.414-2.283l-.075-.075a2.525 2.525 0 0 1-.736-1.776 2.515 2.515 0 0 1 1.551-2.321 2.515 2.515 0 0 1 2.737.545l.075.075a2.074 2.074 0 0 0 2.283.414h.1a2.07 2.07 0 0 0 1.255-1.895v-.213a2.509 2.509 0 1 1 5.02 0v.113a2.074 2.074 0 0 0 1.255 1.895 2.07 2.07 0 0 0 2.284-.414l.075-.075a2.493 2.493 0 0 1 1.775-.736 2.515 2.515 0 0 1 2.32 1.551 2.515 2.515 0 0 1-.545 2.737l-.075.075a2.073 2.073 0 0 0-.414 2.284v.1a2.07 2.07 0 0 0 1.895 1.255h.213a2.509 2.509 0 1 1 0 5.02h-.113a2.074 2.074 0 0 0-1.895 1.255z"/></symbol><symbol id="icon-profile" viewBox="0 0 30 32"><path fill="none" stroke="#003d29" style="stroke:var(--color1,#003d29)" stroke-linejoin="round" stroke-linecap="round" stroke-width="3.2" d="M26.312 28.8v-2.844a5.689 5.689 0 0 0-5.689-5.689H9.245a5.689 5.689 0 0 0-5.689 5.689V28.8M20.623 8.889a5.689 5.689 0 1 1-11.378 0 5.689 5.689 0 0 1 11.378 0z"/></symbol><symbol id="icon-menu" viewBox="0 0 32 32"><path fill="none" stroke="#003d29" style="stroke:var(--color1,#003d29)" stroke-linejoin="round" stroke-linecap="round" stroke-width="2.667" d="M24 13.333H8M28 8H4M28 18.667H4M24 24H8"/></symbol><symbol id="icon-notepad" viewBox="0 0 33 32"><path fill="#e1ceff" style="fill:var(--color5,#e1ceff)" d="m14.586 14.08.327-1.44 2.613 1.12-.653.96-1.797.64-.49-1.28zM9.359 27.04l.163-2.4 4.083.64 5.227.48 3.103.32 2.94.64 2.45-11.2 1.47-5.92 1.143-1.44-2.287 20.32-.817.32-4.083-.32-4.737-.48-3.92-.8h-3.103l-1.633-.16z"/><path fill="#e1ceff" style="fill:var(--color5,#e1ceff)" d="M14.913 12.48 3.48 15.36v1.28l11.27-2.56.163-1.6z"/><path fill="#031e13" style="fill:var(--color2,#031e13)" d="M30.181 5.959c-.122-.143-.101-.112-1.306-.253-.354-.993-1.385-1.714-2.453-1.716h-.003c-.889 0-1.735.501-2.191 1.238-.284-.025-.565-.045-.848-.068-.053-.104-.065-.126-.077-.16-.353-.995-1.385-1.718-2.455-1.719h-.003a2.613 2.613 0 0 0-2.359 1.566l-.298-.012c-.104-.273-.08-.214-.085-.227-.353-.994-1.385-1.717-2.455-1.719h-.003c-1.067 0-2.146.725-2.454 1.836l-.939-.002c-.314.034-.589-.168-.756.536-.153.648-.539 2.515-1.803 8.157l-6.422 1.421c-.948.21-1.52 1.234-1.339 2.186.089.465.357.913.849 1.239.372.247.813.361 1.239.267l4.786-1.059c-.924 4.155-1.842 6.602-1.517 7.073.166.242 1.234.455 2.028.581-.227 1.976-.393 2.161-.136 2.374a.36.36 0 0 0 .225.078c2.972-.066 5.808.325 8.807.741 7.217 1 7.709.708 8.931.787a.32.32 0 0 0 .185-.031c.669-.106.694-.184.716-.435.513-6.015 1.669-13.905 2.579-19.851.081-.528.342-1.291.198-1.864-.069-.275-.413-.79-.642-.966zm-2.086-.341c-1.044-.117-2.07-.224-3.092-.321.907-1.008 2.432-.792 3.092.321zM22.616 5.1a123.386 123.386 0 0 0-3.408-.213c.827-1.41 2.799-1.166 3.408.213zm-6.968-1.551c.787.001 1.545.53 1.814 1.26a143.287 143.287 0 0 0-3.568-.076c.479-1.208 1.824-1.208 1.754-1.184zm.651 9.796c.023.365.148.746.235 1.112a12.9 12.9 0 0 1-1.114.803 1.215 1.215 0 0 1-.364-.386c-.059-.107-.041-.4.032-.514.184-.289-.158-.383-.099-.79.026-.179.146-.462.236-.575.211.07 1.027.335 1.073.35zM5.217 17.593c-.087-.072-.394-.09-.611-.895.845.054 8.661-1.823 9.749-2.074-.011.389.091.593.336.872l-9.474 2.096zm9.132-3.643c-10.533 2.415-9.518 2.002-9.838 2.122-.013-.323.035-.636.167-.87l9.773-2.163c-.126.321-.18.574-.102.91zM9.53 17.312c6.276-1.394 5.916-1.296 6-1.343.958-.541 2.027-1.523 2.73-2.03a.325.325 0 0 0-.045-.557c-.647-.326-1.294-.533-2.042-.771-1.151-.368-1.097-.386-1.231-.354l-4.524 1.001c.247-1.094 1.494-6.781 1.741-7.875l.941.001c.006.667.28 1.334.756 1.813-.124.448.277.839.756.806.4-.027.701-.341.672-.7s-.378-.629-.778-.601a.803.803 0 0 0-.173.033 1.954 1.954 0 0 1-.562-1.346c1.659.015 3.161.051 4.55.11a2.624 2.624 0 0 0 .689 2.042c-.198.457.207.92.729.884.4-.027.701-.341.672-.701s-.378-.628-.779-.601c-.029.002-.057.009-.085.014a1.943 1.943 0 0 1-.559-1.605c1.665.077 3.306.189 4.969.335-.222.861.059 1.827.704 2.456-.066.421.319.772.773.741.4-.027.701-.341.672-.7-.036-.435-.54-.734-1.017-.545-.479-.495-.671-1.25-.457-1.897 1.59.147 3.178.317 4.841.516-1.818 5.408-3.77 14.278-4.842 19.851-6.018-1.292-14.198-1.32-16.739-2.136.095-.912.98-3.827 1.64-6.841zm.226 9.603c.074-.626.145-.997.225-1.692 2.326.307 6.502.592 10.055.972 2.701.289 4.674.817 4.852.817a.334.334 0 0 0 .33-.271h.001c.102-.328 1.155-6.322 3.008-13.565-.6 4.775-1.046 10.478-1.354 15.264-5.97 0-11.265-1.565-17.119-1.525z"/><path fill="#c0a0f4" style="fill:var(--color6,#c0a0f4)" d="M20.229 14.786c.53.254 1.197.3 1.832.128a3.97 3.97 0 0 0 .551-.208c.747-.324.89-.29 1.42.27.126.133.256.27.409.39a2.026 2.026 0 0 0 2.218.149c.381-.221.041-.787-.343-.565a1.351 1.351 0 0 1-1.457-.098 3.138 3.138 0 0 1-.335-.323c-1.952-2.059-2.227 1.364-5.247-1.112-.341-.279-.771.226-.431.504.411.337.838.604 1.382.865z"/><path fill="#031e13" style="fill:var(--color2,#031e13)" d="M17.119 19.311c.471-.239.976-.58 1.404-.463.406.112.675.616 1.111.976.941.776 2.191.512 2.345.517.565-.049 1.207-.104 1.761-.309.413-.153.183-.767-.237-.616-.532.197-1.217.239-1.874.296-1.904.182-1.777-1.18-2.924-1.496-.698-.192-1.306.213-1.895.512-1.605.816-3.711.513-5.008-.72-.317-.303-.787.168-.468.472 1.498 1.425 3.931 1.775 5.785.833z"/></symbol><symbol id="icon-book" viewBox="0 0 33 32"><path fill="#ffbfc6" style="fill:var(--color1,#ffbfc6)" d="M25.039 15.419c-1.075-.351-2.936.926-3.732 1.609v10.968l3.135 1.024 2.389-1.024c.697-1.852 2.09-5.615 2.09-5.849 0-.293.149-3.217-.299-4.387s-2.239-1.901-3.583-2.34zM8.767 21.853V2.55l-3.284.439-1.642 1.755v19.303L6.08 22l2.687-.146z"/><path fill="#031e13" style="fill:var(--color2,#031e13)" d="M3.255 25.054v.055c0 .441.113.883.225 1.269.507 1.159 1.577 2.042 2.873 2.152.169 0 .338 0 .451.055h.394c1.014-.055 1.127 0 2.422-.055 2.253-.11 3.662-.166 4.957-.276.282 0 .563-.055.845-.055.282.386.563.828 1.014 1.159 1.014.828 2.479.552 3.605 0 .282-.11.563-.331.732-.441a.877.877 0 0 1 .901 0c.169.166.507.331.732.441 1.127.552 2.591.828 3.605 0 .507-.386.845-.883 1.127-1.324a14.281 14.281 0 0 0 1.352-2.98c.338-.993.62-2.042.789-3.09.113-.552.169-1.048.169-1.6s-.056-1.159-.225-1.656c-.338-1.104-1.127-1.987-2.084-2.594a5.427 5.427 0 0 0-1.183-.497c.113-2.207.169-4.415.282-6.622l.113-3.421v-.883c0-.331-.113-.662-.282-.993-.338-.607-.958-1.104-1.634-1.214-.169-.055-.394-.055-.507-.055h-1.296c-9.689-.221-7.436-.166-12.224-.221H6.915c-1.408 0-2.76.828-3.324 2.042-.113.331-.225.662-.282.993-.056.386 0-.607-.056 19.811zm6.365 2.594c-.507 0-1.07-.055-1.577-.055-1.07 0-1.127 0-1.183-.055-.113 0-.225 0-.338-.055-.845-.11-1.634-.717-1.972-1.545a2.448 2.448 0 0 1-.169-.883c0-.441.113-.883.338-1.324.225-.386.62-.717 1.014-.938.225-.11.451-.166.676-.221.113 0 .169-.055.282-.055h1.183c.958 0 1.915-.055 2.929-.11a19.143 19.143 0 0 0 2.479-.331c.169.993.394 1.931.732 2.869.338.993.732 2.042 1.352 2.98 0 0 0 .055.056.055-1.69-.166-3.211-.276-5.802-.331zm.789-24.336c.056 0 12.337-.11 12.224-.11h1.69c.451.055.845.331 1.07.717.113.221.169.441.225.662v.828l.113 3.421c.113 2.207.169 4.415.282 6.622-.676-.166-1.352-.166-2.028-.055-1.07.221-2.084.828-2.704 1.711a4.41 4.41 0 0 1 2.76-1.38c1.014-.11 2.084.11 2.929.662s1.465 1.38 1.69 2.318c.282.938.113 1.931-.113 2.925-.451 1.987-1.127 4.028-2.197 5.684-.282.386-.563.828-.901 1.048-.732.552-1.915.11-2.422-.166a3.857 3.857 0 0 1-.62-.386c-.282-.221-.676-.331-1.07-.331s-.732.11-1.07.331a3.705 3.705 0 0 1-.62.386c-.62.276-1.746.717-2.422.166-.338-.276-.62-.662-.901-1.048-.563-.828-.958-1.766-1.296-2.759a23.027 23.027 0 0 1-.845-2.98c-.225-.993-.394-1.987-.113-2.925.225-.938.845-1.766 1.69-2.318s1.859-.828 2.929-.662a4.347 4.347 0 0 1 2.76 1.435 4.498 4.498 0 0 0-2.704-1.711 4.855 4.855 0 0 0-3.267.497c-.958.552-1.746 1.49-2.084 2.594-.169.552-.225 1.104-.225 1.656s.113 1.104.169 1.6v.055a30.068 30.068 0 0 0-3.831-.441l-.169-9.216-.507-8.829h1.577zM4.325 5.74c0-.11 0-.221.056-.331.056-.221.113-.441.225-.662.394-.883 1.352-1.435 2.31-1.435h1.915l-.338 9.216a235.91 235.91 0 0 0-.169 8.94H6.746c-.169 0-.338 0-.507.055a2.823 2.823 0 0 0-.958.331c-.338.166-.62.386-.901.607-.056-1.435-.056-17.769-.056-16.721z"/><path fill="#031e13" style="fill:var(--color2,#031e13)" d="M23.253 13.245c.338-.331.789-.607 1.296-.938-.563-.11-1.183-.055-1.746.221s-1.07.717-1.352 1.214c-.338.552-.451 1.104-.507 1.711 0 .607.056 1.159.338 1.656.338-1.104.62-2.042 1.127-2.814.169-.386.507-.717.845-1.048z"/></symbol><symbol id="icon-achievement" viewBox="0 0 33 32"><path fill="#d5e27b" style="fill:var(--color3,#d5e27b)" d="M22.263 5.6c.381.96 1.143 2.944 1.143 3.2l3.267-3.68-1.307-3.52-3.103 4zM9.849 20l-.163-2.4.653-1.28.98-1.6 2.123-1.12 3.267.64 1.143.8 1.307 1.92.163 1.92-.653 1.92-1.307 1.28-1.633.8h-2.123l-2.123-.96L9.85 20z"/><path fill="#d5e27b" style="fill:var(--color3,#d5e27b)" d="M14.282 30.4c-6.43 0-11.642-5.158-11.642-11.52S7.852 7.36 14.282 7.36s11.642 5.158 11.642 11.52S20.712 30.4 14.282 30.4zm0-4.16c4.465 0 8.085-3.582 8.085-8s-3.62-8-8.085-8c-4.465 0-8.085 3.582-8.085 8s3.62 8 8.085 8z"/><path fill="#031e13" style="fill:var(--color2,#031e13)" d="M24.511 25.275c1.136-1.828 1.733-3.985 1.669-6.105.253-3.567-1.057-6.682-3.416-8.914l.456-.5a22.2 22.2 0 0 1 3.931.274 304.638 304.638 0 0 0 3.694-3.497 18.277 18.277 0 0 0-.142-.365.34.34 0 0 0-.208-.532c-.955-.219-2.677-.451-3.692-.664-.311-.928-.743-2.622-1.046-3.464a.357.357 0 0 0-.581-.138c-1.242 1.164-2.237 2.715-3.217 4.092a.349.349 0 0 0-.051.3c.248.855.819 2.213 1.119 3.15-.262.29-.529.579-.792.868-3.372-2.822-8.229-3.804-12.514-2.031-.14.032-.27.069-.365.114-3.598 1.679-6.275 5.162-6.949 9.041s.811 7.912 3.635 10.683c5.191 5.093 14.706 3.74 18.469-2.314zm5.187-19.079c-.849.847-1.96 1.972-2.79 2.795-.9-.056-1.869-.088-2.845-.216.603-.665 2.712-2.972 2.785-3.072.835.165 1.979.332 2.85.493zm-4.434-3.91c.279.902.661 2.348.927 3.094l-2.629 2.889c-.29-.823-.703-1.847-.92-2.539.809-1.145 1.652-2.424 2.621-3.444zm-3.507 8.022c-.557.61-1.117 1.217-1.681 1.824-3.267-2.741-8.168-2.76-11.286.033-2.765 2.478-3.605 6.607-1.997 9.817 1.382 2.758 4.803 4.797 7.961 4.797 7.531 0 10.852-9.198 5.849-14.172.564-.607 1.125-1.216 1.683-1.826 4.847 4.61 3.881 12.376-.713 16.115-6.314 5.139-17.645 1.124-18.146-8.052-.352-9.961 10.972-14.674 18.329-8.536zm-5.976 6.356c-.862-.661-1.645-.351-1.693-.351-.933.278-1.533 1.362-1.267 2.29s1.352 1.539 2.294 1.291c1.053-.278 1.794-1.622 1.142-2.701.525-.543 1.048-1.087 1.57-1.635 3.031 3.353-.591 8.722-5.116 6.7-1.258-.562-2.167-1.582-2.494-2.799-.452-1.682.083-3.435 1.363-4.465 1.658-1.334 4.038-1.285 5.731.076-.509.534-1.019 1.065-1.53 1.594zm2.026-2.115c-1.9-1.557-4.699-1.693-6.676-.103-1.497 1.205-2.126 3.243-1.602 5.193.606 2.26 2.863 3.751 5.142 3.751 4.35 0 6.554-5.228 3.653-8.355.602-.634 1.2-1.27 1.796-1.909 1.43 1.433 2.138 3.211 2.151 5.19.037 5.388-4.925 8.941-9.745 7.413-2.277-.722-4.181-2.241-5.094-4.061-1.469-2.933-.697-6.71 1.837-8.98 2.856-2.558 7.34-2.521 10.324-.038-.593.636-1.188 1.268-1.787 1.898zM3.414 7.868c-.179-.082-.391-.006-.474.171s-.006.387.173.469L5.331 9.53c.18.082.391.005.474-.171s.006-.387-.173-.469L3.414 7.868zM6.91 8.209a.35.35 0 0 0 .037-.498 5.57 5.57 0 0 1-1.044-1.77.357.357 0 0 0-.672.238 6.235 6.235 0 0 0 1.176 1.994.36.36 0 0 0 .503.036z"/><path fill="#031e13" style="fill:var(--color2,#031e13)" d="M8.73 4.93a.357.357 0 0 0-.421.275 4.826 4.826 0 0 0 0 1.945.356.356 0 0 0 .349.282.355.355 0 0 0 .35-.424 4.116 4.116 0 0 1 0-1.662.354.354 0 0 0-.278-.417z"/></symbol><symbol id="icon-hierarchy" viewBox="0 0 33 32"><path fill="#c5dbf2" style="fill:var(--color4,#c5dbf2)" d="M22.266 26.246v-3.898l.884-.433 3.98-.144 2.8.289v2.888l-.295 2.31-1.327.578-2.211-.144h-2.948l-.59-.289-.295-1.155zM2.81 26.823v-4.332l3.537-.722 2.948.144 1.179.866.147 2.599-.737 2.166-1.474.289-2.211-.144-2.8-.144-.59-.722z"/><path fill="#031e13" style="fill:var(--color2,#031e13)" d="M29.579 21.548c-.34-.167-.794-.167-1.02-.167h-2.324c.057-.333.057-.722.113-1.055l.057-.833c0-.278-.057-.611-.17-.888-.283-.555-.794-1.055-1.474-1.166-.17-.056-.34-.056-.51-.056-.057 0-1.304-.056-1.247-.056-2.097-.056-4.195-.111-6.293-.111.057-.167.113-.278.17-.444.17-.666.17-1.333 0-1.944-.057-.167-.113-.278-.17-.444H20.68c.283 0 .567-.056.794-.167.51-.167.964-.555 1.247-1 .113-.222.227-.5.283-.722.057-.278.057-.555.057-.722l-.057-2.499-.057-2.499v-.611c0-.222-.057-.5-.17-.722-.17-.555-.51-.944-.907-1.166s-.964-.278-1.361-.278c-1.701.111-2.268.111-3.798.222 1.531.111 2.098.111 3.741.222a2.2 2.2 0 0 1 1.077.278c.283.222.51.5.624.833.057.167.057.333.057.5v.611l-.113 4.998c0 .222 0 .389-.057.5a2.661 2.661 0 0 1-.17.389c-.17.278-.397.444-.737.555-.17.056-.284.056-.453.056H12.46c-.227 0-.34 0-.51-.056s-.283-.111-.397-.167a1.307 1.307 0 0 1-.567-.666c-.057-.167-.113-.278-.113-.444v-.611c0-1.444-.057-2.499-.113-4.998v-.555c0-.166.113-.333.17-.5.17-.278.454-.555.794-.666.17-.056.34-.111.51-.111l.624-.056c1.644-.056 2.268-.111 3.798-.222-1.531-.111-2.154-.111-3.798-.222l-.624-.056c-.227 0-.454.056-.737.111-.454.167-.85.444-1.134.889-.113.222-.227.444-.283.666s-.057.5-.057.666l-.113 2.61c-.057 1.777-.057 2.443-.057 3.11 0 .278.057.5.113.777.17.5.51.944.964 1.222.227.167.51.278.737.333.283.056.567.056.737.056h3.685c-.057.167-.113.278-.17.444a3.767 3.767 0 0 0 0 1.944c.057.167.113.278.17.444-5.102 0-6.463.111-7.313.167h-.397c-.17 0-.34 0-.51.056-.624.167-1.19.611-1.474 1.166a2.48 2.48 0 0 0-.17.888l.057.833c.057.333.057.722.113 1.055H4.071c-.227 0-.68 0-1.02.167s-.624.444-.794.777c-.17.333-.17.777-.17.944 0 .833.057 1.666.113 3.054 0 .222 0 .611.17.888s.397.5.737.666c.283.111.68.111.907.111.397-.056 1.077-.056 2.381-.222-.34.056-.907 0-1.417 0l-.794-.056c-.283 0-.454-.056-.624-.167s-.283-.278-.397-.444c-.057-.167-.057-.333-.057-.611.057-1.444.113-2.277.113-3.054 0-.278 0-.389.113-.555.057-.111.17-.222.34-.278s.227-.056.51-.056h4.762c.34 0 .397 0 .51.056s.227.167.34.278c.057.111.057.222.113.555 0 .889.057 1.555.113 3.054 0 .278.057.444-.057.611-.057.167-.227.333-.397.444s-.34.111-.624.167c-.397.056-1.077.056-2.381.222.51.056 1.02.111 1.587.167l.794.056c.227 0 .567.056.907-.111a1.41 1.41 0 0 0 .737-.666c.17-.278.17-.666.17-.889.057-1.499.113-2.166.113-3.054 0-.222 0-.666-.17-.944-.17-.333-.454-.611-.794-.777s-.794-.167-1.02-.167H6.561c.057-.444.113-.833.17-1.166l.057-.833c0-.222.113-.444.227-.666.227-.389.68-.666 1.134-.722h.737l.85.056c2.211.056 4.422.111 6.633.111 5.215 0 6.689-.111 7.483-.167.397 0 .567-.056.737 0 .454.056.85.333 1.134.722.113.222.227.444.227.666l.057.833c.057.333.057.722.113 1.055h-2.324c-.227 0-.68 0-1.02.167s-.624.444-.794.777-.17.777-.17.944c0 .833.057 1.666.113 3.054 0 .222 0 .611.17.888s.397.5.737.666c.283.111.68.111.907.111.397-.056 1.077-.056 2.381-.222-.51-.056-1.02-.111-1.587-.167l-.794-.056c-.284 0-.454-.056-.624-.167s-.283-.278-.397-.444c-.057-.167-.057-.333-.057-.611.057-1.388.113-2.221.113-3.054 0-.278 0-.389.113-.555.057-.111.17-.222.34-.278s.227-.056.51-.056h4.762c.34 0 .397 0 .51.056s.227.167.34.278c.057.111.057.222.113.555 0 .888.057 1.555.113 3.054 0 .278.057.444-.057.611-.057.167-.227.333-.397.444s-.34.111-.624.167c-.397.056-1.077.056-2.381.222.51.056 1.02.111 1.587.167l.794.056c.227 0 .567.056.907-.111a1.41 1.41 0 0 0 .737-.666c.17-.278.17-.666.17-.888.057-1.499.113-2.166.113-3.054 0-.222 0-.666-.17-.944a1.4 1.4 0 0 0-.68-.722z"/></symbol><symbol id="icon-facebook" viewBox="0 0 24 24"><path d="M13 10h3v3h-3v7h-3v-7H7v-3h3V8.745c0-1.189.374-2.691 1.118-3.512C11.862 4.41 12.791 4 13.904 4H16v3h-2.1c-.498 0-.9.402-.9.899V10z"/></symbol><symbol id="icon-instagram" viewBox="0 0 34 32"><path d="M10.281.563a9.1 9.1 0 0 0-9.08 9.087v12.976a9.093 9.093 0 0 0 9.087 9.081h12.976a9.099 9.099 0 0 0 9.082-9.085V9.644A9.099 9.099 0 0 0 23.261.562h-12.98zm15.575 5.191a1.313 1.313 0 0 1 .95.363 1.295 1.295 0 0 1-.001 1.87 1.301 1.301 0 0 1-1.837-.035 1.3 1.3 0 0 1 .887-2.199h.002zm-9.085 2.595c4.295 0 7.786 3.493 7.786 7.786 0 4.295-3.491 7.786-7.786 7.786a7.792 7.792 0 0 1-7.787-7.786c0-4.293 3.493-7.786 7.786-7.786zm0 2.596a5.188 5.188 0 0 0-5.191 5.191 5.188 5.188 0 0 0 5.191 5.191 5.188 5.188 0 0 0 5.191-5.191 5.188 5.188 0 0 0-5.191-5.191z"/></symbol><symbol id="icon-linkedin" viewBox="0 0 34 32"><path d="M7.699 31.992H.913v-20.36h6.786v20.36zM4.307 8.917A3.392 3.392 0 0 1 .912 5.522a3.392 3.392 0 0 1 5.795-2.401 3.391 3.391 0 0 1 0 4.8c-.636.637-1.5.994-2.4.994v.002zm27.825 23.075h-6.525v-9.91c0-2.363-.044-5.401-3.392-5.401-3.396 0-3.92 2.573-3.92 5.231v10.081h-6.523v-20.38h6.264v2.784h.088c.871-1.601 3.002-3.289 6.178-3.289 6.609 0 7.832 4.219 7.832 9.706v11.175l-.002.002z"/></symbol></defs></svg>