<svg aria-hidden="true" style="width:0;height:0;position:absolute;overflow:hidden" xmlns="http://www.w3.org/2000/svg"><defs><symbol id="icon-avatar" viewBox="0 0 32 32"><path d="M16 .001C7.164.001 0 7.164 0 16s7.164 15.999 16 15.999c8.837 0 16-7.163 16-15.999S24.837.001 16 .001zm0 4.784a5.292 5.292 0 1 1 .001 10.585A5.292 5.292 0 0 1 16 4.785zm-.004 23.031a11.738 11.738 0 0 1-7.646-2.82 2.255 2.255 0 0 1-.791-1.714c0-2.964 2.399-5.336 5.363-5.336h6.158a5.33 5.33 0 0 1 5.355 5.336c0 .659-.288 1.285-.791 1.713a11.74 11.74 0 0 1-7.647 2.82z"/></symbol><symbol id="icon-close" viewBox="0 0 32 32"><path d="m4.053 30.933-2.987-2.987 11.947-11.947L1.066 4.052l2.987-2.987L16 13.012 27.947 1.065l2.987 2.987-11.947 11.947 11.947 11.947-2.987 2.987L16 18.986 4.053 30.933z"/></symbol><symbol id="icon-google" viewBox="0 0 32 32"><path fill="#4285f4" style="fill:var(--color1,#4285f4)" d="M32 16.364c0-1.135-.104-2.225-.297-3.273H16.326v6.189h8.787c-.378 2-1.529 3.695-3.258 4.829v4.015h5.276c3.087-2.785 4.868-6.887 4.868-11.76z"/><path fill="#34a853" style="fill:var(--color2,#34a853)" d="M16.327 32c4.408 0 8.104-1.433 10.805-3.876l-5.276-4.015c-1.462.96-3.332 1.527-5.529 1.527-4.252 0-7.852-2.815-9.135-6.596H1.737v4.145C4.423 28.414 9.945 32 16.327 32z"/><path fill="#fbbc05" style="fill:var(--color3,#fbbc05)" d="M7.191 19.04c-.327-.96-.512-1.985-.512-3.04s.186-2.08.512-3.04V8.815H1.736a15.733 15.733 0 0 0 0 14.371l5.455-4.145z"/><path fill="#ea4335" style="fill:var(--color4,#ea4335)" d="M16.327 6.364c2.397 0 4.549.807 6.241 2.393l4.683-4.589C24.424 1.586 20.728.001 16.327.001c-6.382 0-11.904 3.586-14.59 8.815l5.455 4.145c1.284-3.782 4.883-6.596 9.135-6.596z"/></symbol><symbol id="icon-logout" viewBox="0 0 30 32"><path fill="none" stroke="#003d29" style="stroke:var(--color1,#003d29)" stroke-linejoin="round" stroke-linecap="round" stroke-width="3.2" d="M10.667 28.8H4.978a2.845 2.845 0 0 1-2.844-2.844V6.045a2.845 2.845 0 0 1 2.844-2.844h5.689m9.955 19.91L27.733 16m0 0-7.111-7.111M27.733 16H10.666"/></symbol><symbol id="icon-phone" viewBox="0 0 32 32"><path fill="none" stroke="#003d29" style="stroke:var(--color1,#003d29)" stroke-linejoin="round" stroke-linecap="round" stroke-width="3" d="M20.067 7.667a6.666 6.666 0 0 1 5.266 5.266m-5.266-10.6a12 12 0 0 1 10.6 10.587m-1.333 10.64v4a2.654 2.654 0 0 1-.864 1.976 2.675 2.675 0 0 1-2.042.691 26.398 26.398 0 0 1-11.507-4.093 25.988 25.988 0 0 1-8-8 26.382 26.382 0 0 1-4.093-11.56 2.657 2.657 0 0 1 .687-2.038 2.664 2.664 0 0 1 1.967-.868h4a2.67 2.67 0 0 1 2.667 2.294 17.16 17.16 0 0 0 .933 3.747 2.675 2.675 0 0 1-.6 2.814l-1.693 1.693a21.333 21.333 0 0 0 8 8l1.693-1.693a2.671 2.671 0 0 1 2.813-.6 17.16 17.16 0 0 0 3.747.933 2.665 2.665 0 0 1 2.293 2.707z"/></symbol><symbol id="icon-settings" viewBox="0 0 30 32"><path fill="none" stroke="#003d29" style="stroke:var(--color1,#003d29)" stroke-linejoin="round" stroke-linecap="round" stroke-width="2.824" d="M15.059 19.765a3.765 3.765 0 1 0 0-7.53 3.765 3.765 0 0 0 0 7.53z"/><path fill="none" stroke="#003d29" style="stroke:var(--color1,#003d29)" stroke-linejoin="round" stroke-linecap="round" stroke-width="2.824" d="M24.346 19.765a2.069 2.069 0 0 0 .414 2.283l.075.075a2.525 2.525 0 0 1 .736 1.776 2.511 2.511 0 0 1-4.287 1.776l-.075-.075a2.074 2.074 0 0 0-2.283-.414 2.07 2.07 0 0 0-1.255 1.895v.213a2.509 2.509 0 1 1-5.02 0v-.113a2.071 2.071 0 0 0-1.355-1.895 2.069 2.069 0 0 0-2.283.414l-.075.075a2.525 2.525 0 0 1-1.776.736 2.515 2.515 0 0 1-2.321-1.55 2.515 2.515 0 0 1 .545-2.737l.075-.075a2.074 2.074 0 0 0 .414-2.283 2.07 2.07 0 0 0-1.895-1.255h-.213a2.509 2.509 0 1 1 0-5.02h.113a2.071 2.071 0 0 0 1.895-1.355 2.069 2.069 0 0 0-.414-2.283l-.075-.075a2.525 2.525 0 0 1-.736-1.776 2.515 2.515 0 0 1 1.551-2.321 2.515 2.515 0 0 1 2.737.545l.075.075a2.074 2.074 0 0 0 2.283.414h.1a2.07 2.07 0 0 0 1.255-1.895v-.213a2.509 2.509 0 1 1 5.02 0v.113a2.074 2.074 0 0 0 1.255 1.895 2.07 2.07 0 0 0 2.284-.414l.075-.075a2.493 2.493 0 0 1 1.775-.736 2.515 2.515 0 0 1 2.32 1.551 2.515 2.515 0 0 1-.545 2.737l-.075.075a2.073 2.073 0 0 0-.414 2.284v.1a2.07 2.07 0 0 0 1.895 1.255h.213a2.509 2.509 0 1 1 0 5.02h-.113a2.074 2.074 0 0 0-1.895 1.255z"/></symbol><symbol id="icon-profile" viewBox="0 0 30 32"><path fill="none" stroke="#003d29" style="stroke:var(--color1,#003d29)" stroke-linejoin="round" stroke-linecap="round" stroke-width="3.2" d="M26.312 28.8v-2.844a5.689 5.689 0 0 0-5.689-5.689H9.245a5.689 5.689 0 0 0-5.689 5.689V28.8M20.623 8.889a5.689 5.689 0 1 1-11.378 0 5.689 5.689 0 0 1 11.378 0z"/></symbol><symbol id="icon-menu" viewBox="0 0 32 32"><path fill="none" stroke="#003d29" style="stroke:var(--color1,#003d29)" stroke-linejoin="round" stroke-linecap="round" stroke-width="2.667" d="M24 13.333H8M28 8H4M28 18.667H4M24 24H8"/></symbol></defs></svg>