<svg aria-hidden="true" style="position: absolute; width: 0; height: 0; overflow: hidden;" version="1.1" xmlns="http://www.w3.org/2000/svg" xmlns:xlink="http://www.w3.org/1999/xlink">
<defs>
<symbol id="icon-avatar" viewBox="0 0 32 32">
<path d="M16 0.001c-8.836 0-16 7.163-16 15.999s7.164 15.999 16 15.999c8.837 0 16-7.163 16-15.999s-7.163-15.999-16-15.999zM16 4.785c2.924 0 5.293 2.37 5.293 5.292s-2.369 5.292-5.293 5.292c-2.922 0-5.291-2.369-5.291-5.292s2.369-5.292 5.291-5.292zM15.996 27.816c-2.916 0-5.587-1.062-7.646-2.82-0.502-0.428-0.791-1.056-0.791-1.714 0-2.964 2.399-5.336 5.363-5.336h6.158c2.965 0 5.355 2.372 5.355 5.336 0 0.659-0.288 1.285-0.791 1.713-2.059 1.758-4.731 2.82-7.647 2.82z"></path>
</symbol>
<symbol id="icon-close" viewBox="0 0 32 32">
<path d="M4.053 30.933l-2.987-2.987 11.947-11.947-11.947-11.947 2.987-2.987 11.947 11.947 11.947-11.947 2.987 2.987-11.947 11.947 11.947 11.947-2.987 2.987-11.947-11.947-11.947 11.947z"></path>
</symbol>
<symbol id="icon-google" viewBox="0 0 32 32">
<path fill="#4285f4" style="fill: var(--color1, #4285f4)" d="M32 16.364c0-1.135-0.104-2.225-0.297-3.273h-15.377v6.189h8.787c-0.378 2-1.529 3.695-3.258 4.829v4.015h5.276c3.087-2.785 4.868-6.887 4.868-11.76z"></path>
<path fill="#34a853" style="fill: var(--color2, #34a853)" d="M16.327 32c4.408 0 8.104-1.433 10.805-3.876l-5.276-4.015c-1.462 0.96-3.332 1.527-5.529 1.527-4.252 0-7.852-2.815-9.135-6.596h-5.455v4.145c2.686 5.229 8.208 8.815 14.59 8.815z"></path>
<path fill="#fbbc05" style="fill: var(--color3, #fbbc05)" d="M7.191 19.040c-0.327-0.96-0.512-1.985-0.512-3.040s0.186-2.080 0.512-3.040v-4.145h-5.455c-1.106 2.16-1.737 4.604-1.737 7.186s0.631 5.025 1.737 7.185l5.455-4.145z"></path>
<path fill="#ea4335" style="fill: var(--color4, #ea4335)" d="M16.327 6.364c2.397 0 4.549 0.807 6.241 2.393l4.683-4.589c-2.827-2.582-6.523-4.167-10.924-4.167-6.382 0-11.904 3.586-14.59 8.815l5.455 4.145c1.284-3.782 4.883-6.596 9.135-6.596z"></path>
</symbol>
<symbol id="icon-logout" viewBox="0 0 30 32">
<path fill="none" stroke="#003d29" style="stroke: var(--color1, #003d29)" stroke-linejoin="round" stroke-linecap="round" stroke-miterlimit="4" stroke-width="3.2" d="M10.667 28.8h-5.689c-0.754 0-1.478-0.3-2.011-0.833s-0.833-1.257-0.833-2.011v-19.911c0-0.754 0.3-1.478 0.833-2.011s1.257-0.833 2.011-0.833h5.689M20.622 23.111l7.111-7.111M27.733 16l-7.111-7.111M27.733 16h-17.067"></path>
</symbol>
<symbol id="icon-phone" viewBox="0 0 32 32">
<path fill="none" stroke="#003d29" style="stroke: var(--color1, #003d29)" stroke-linejoin="round" stroke-linecap="round" stroke-miterlimit="4" stroke-width="3" d="M20.067 7.667c1.302 0.254 2.499 0.891 3.437 1.829s1.575 2.135 1.829 3.437M20.067 2.333c2.706 0.301 5.229 1.512 7.155 3.436s3.141 4.445 3.445 7.151M29.334 23.56v4c0.002 0.371-0.074 0.739-0.223 1.079s-0.367 0.646-0.641 0.897-0.597 0.442-0.948 0.561c-0.352 0.119-0.725 0.163-1.094 0.13-4.103-0.446-8.044-1.848-11.507-4.093-3.222-2.047-5.953-4.778-8-8-2.253-3.478-3.656-7.439-4.093-11.56-0.033-0.369 0.010-0.74 0.129-1.091s0.308-0.673 0.558-0.947c0.25-0.273 0.553-0.492 0.892-0.641s0.705-0.227 1.075-0.227h4c0.647-0.006 1.274 0.223 1.765 0.645s0.811 1.008 0.902 1.649c0.169 1.28 0.482 2.537 0.933 3.747 0.179 0.477 0.218 0.996 0.112 1.495s-0.353 0.956-0.712 1.319l-1.693 1.693c1.898 3.338 4.662 6.102 8 8l1.693-1.693c0.362-0.359 0.82-0.606 1.319-0.712s1.017-0.067 1.494 0.112c1.21 0.451 2.467 0.764 3.747 0.933 0.648 0.091 1.239 0.418 1.662 0.917s0.648 1.136 0.631 1.79z"></path>
</symbol>
<symbol id="icon-settings" viewBox="0 0 30 32">
<path fill="none" stroke="#003d29" style="stroke: var(--color1, #003d29)" stroke-linejoin="round" stroke-linecap="round" stroke-miterlimit="4" stroke-width="2.8235" d="M15.059 19.765c2.079 0 3.765-1.686 3.765-3.765s-1.685-3.765-3.765-3.765c-2.079 0-3.765 1.685-3.765 3.765s1.685 3.765 3.765 3.765z"></path>
<path fill="none" stroke="#003d29" style="stroke: var(--color1, #003d29)" stroke-linejoin="round" stroke-linecap="round" stroke-miterlimit="4" stroke-width="2.8235" d="M24.346 19.765c-0.167 0.379-0.217 0.798-0.143 1.205s0.268 0.783 0.557 1.078l0.075 0.075c0.233 0.233 0.418 0.51 0.545 0.815s0.191 0.631 0.191 0.961c0 0.33-0.065 0.657-0.191 0.961s-0.312 0.581-0.545 0.815-0.51 0.418-0.815 0.545c-0.305 0.126-0.631 0.191-0.961 0.191s-0.656-0.065-0.961-0.191c-0.305-0.126-0.581-0.312-0.814-0.545l-0.075-0.075c-0.296-0.289-0.671-0.483-1.078-0.557s-0.827-0.024-1.205 0.143c-0.371 0.159-0.688 0.423-0.911 0.76s-0.343 0.731-0.344 1.135v0.213c0 0.666-0.264 1.304-0.735 1.775s-1.109 0.735-1.775 0.735-1.304-0.264-1.775-0.735c-0.471-0.471-0.735-1.109-0.735-1.775v-0.113c-0.010-0.415-0.144-0.818-0.386-1.156s-0.579-0.595-0.969-0.739c-0.379-0.167-0.798-0.217-1.205-0.143s-0.783 0.268-1.078 0.557l-0.075 0.075c-0.233 0.233-0.51 0.418-0.815 0.545s-0.631 0.191-0.961 0.191c-0.33 0-0.656-0.065-0.961-0.191s-0.581-0.311-0.815-0.545c-0.233-0.233-0.418-0.51-0.545-0.814s-0.191-0.631-0.191-0.961 0.065-0.656 0.191-0.961c0.126-0.305 0.311-0.581 0.545-0.815l0.075-0.075c0.289-0.296 0.483-0.671 0.557-1.078s0.024-0.827-0.143-1.205c-0.159-0.371-0.423-0.688-0.76-0.911s-0.731-0.343-1.135-0.344h-0.213c-0.666 0-1.304-0.264-1.775-0.735s-0.735-1.109-0.735-1.775c0-0.666 0.264-1.304 0.735-1.775s1.109-0.735 1.775-0.735h0.113c0.415-0.010 0.818-0.144 1.156-0.386s0.595-0.579 0.739-0.969c0.167-0.379 0.217-0.798 0.143-1.205s-0.268-0.783-0.557-1.078l-0.075-0.075c-0.233-0.233-0.418-0.51-0.545-0.815s-0.191-0.631-0.191-0.961c0-0.33 0.065-0.656 0.191-0.961s0.311-0.582 0.545-0.815c0.233-0.233 0.51-0.418 0.815-0.545s0.631-0.191 0.961-0.191c0.33 0 0.656 0.065 0.961 0.191s0.582 0.311 0.815 0.545l0.075 0.075c0.296 0.289 0.671 0.483 1.078 0.557s0.827 0.024 1.205-0.143h0.1c0.371-0.159 0.688-0.423 0.911-0.76s0.343-0.731 0.344-1.135v-0.213c0-0.666 0.264-1.304 0.735-1.775s1.109-0.735 1.775-0.735c0.666 0 1.304 0.264 1.775 0.735s0.735 1.109 0.735 1.775v0.113c0.002 0.404 0.121 0.798 0.344 1.135s0.54 0.601 0.911 0.76c0.379 0.167 0.799 0.217 1.205 0.143s0.783-0.268 1.079-0.557l0.075-0.075c0.233-0.233 0.51-0.418 0.814-0.545s0.631-0.191 0.961-0.191c0.33 0 0.656 0.065 0.961 0.191s0.581 0.311 0.814 0.545c0.233 0.233 0.418 0.51 0.545 0.815s0.191 0.631 0.191 0.961c0 0.33-0.065 0.656-0.191 0.961s-0.311 0.581-0.545 0.815l-0.075 0.075c-0.289 0.296-0.483 0.671-0.557 1.079s-0.024 0.827 0.143 1.205v0.1c0.159 0.371 0.423 0.688 0.76 0.911s0.731 0.343 1.135 0.344h0.213c0.666 0 1.304 0.264 1.775 0.735s0.735 1.109 0.735 1.775-0.264 1.304-0.735 1.775c-0.471 0.471-1.109 0.735-1.775 0.735h-0.113c-0.404 0.002-0.798 0.121-1.135 0.344s-0.601 0.539-0.76 0.911z"></path>
</symbol>
<symbol id="icon-profile" viewBox="0 0 30 32">
<path fill="none" stroke="#003d29" style="stroke: var(--color1, #003d29)" stroke-linejoin="round" stroke-linecap="round" stroke-miterlimit="4" stroke-width="3.2" d="M26.312 28.8v-2.844c0-1.509-0.599-2.956-1.666-4.023s-2.514-1.666-4.023-1.666h-11.378c-1.509 0-2.956 0.599-4.023 1.666s-1.666 2.514-1.666 4.023v2.844M20.623 8.889c0 3.142-2.547 5.689-5.689 5.689s-5.689-2.547-5.689-5.689c0-3.142 2.547-5.689 5.689-5.689s5.689 2.547 5.689 5.689z"></path>
</symbol>
<symbol id="icon-menu" viewBox="0 0 32 32">
<path fill="none" stroke="#003d29" style="stroke: var(--color1, #003d29)" stroke-linejoin="round" stroke-linecap="round" stroke-miterlimit="4" stroke-width="2.6667" d="M24 13.333h-16"></path>
<path fill="none" stroke="#003d29" style="stroke: var(--color1, #003d29)" stroke-linejoin="round" stroke-linecap="round" stroke-miterlimit="4" stroke-width="2.6667" d="M28 8h-24"></path>
<path fill="none" stroke="#003d29" style="stroke: var(--color1, #003d29)" stroke-linejoin="round" stroke-linecap="round" stroke-miterlimit="4" stroke-width="2.6667" d="M28 18.667h-24"></path>
<path fill="none" stroke="#003d29" style="stroke: var(--color1, #003d29)" stroke-linejoin="round" stroke-linecap="round" stroke-miterlimit="4" stroke-width="2.6667" d="M24 24h-16"></path>
</symbol>
</defs>
</svg>
