<svg aria-hidden="true" style="position: absolute; width: 0; height: 0; overflow: hidden;" version="1.1" xmlns="http://www.w3.org/2000/svg" xmlns:xlink="http://www.w3.org/1999/xlink">
<defs>
<symbol id="icon-avatar" viewBox="0 0 32 32">
<path d="M16 0.001c-8.836 0-16 7.163-16 15.999s7.164 15.999 16 15.999c8.837 0 16-7.163 16-15.999s-7.163-15.999-16-15.999zM16 4.785c2.924 0 5.293 2.37 5.293 5.292s-2.369 5.292-5.293 5.292c-2.922 0-5.291-2.369-5.291-5.292s2.369-5.292 5.291-5.292zM15.996 27.816c-2.916 0-5.587-1.062-7.646-2.82-0.502-0.428-0.791-1.056-0.791-1.714 0-2.964 2.399-5.336 5.363-5.336h6.158c2.965 0 5.355 2.372 5.355 5.336 0 0.659-0.288 1.285-0.791 1.713-2.059 1.758-4.731 2.82-7.647 2.82z"></path>
</symbol>
<symbol id="icon-close" viewBox="0 0 32 32">
<path d="M4.053 30.933l-2.987-2.987 11.947-11.947-11.947-11.947 2.987-2.987 11.947 11.947 11.947-11.947 2.987 2.987-11.947 11.947 11.947 11.947-2.987 2.987-11.947-11.947-11.947 11.947z"></path>
</symbol>
<symbol id="icon-google" viewBox="0 0 32 32">
<path fill="#4285f4" style="fill: var(--color1, #4285f4)" d="M32 16.364c0-1.135-0.104-2.225-0.297-3.273h-15.377v6.189h8.787c-0.378 2-1.529 3.695-3.258 4.829v4.015h5.276c3.087-2.785 4.868-6.887 4.868-11.76z"></path>
<path fill="#34a853" style="fill: var(--color2, #34a853)" d="M16.327 32c4.408 0 8.104-1.433 10.805-3.876l-5.276-4.015c-1.462 0.96-3.332 1.527-5.529 1.527-4.252 0-7.852-2.815-9.135-6.596h-5.455v4.145c2.686 5.229 8.208 8.815 14.59 8.815z"></path>
<path fill="#fbbc05" style="fill: var(--color3, #fbbc05)" d="M7.191 19.040c-0.327-0.96-0.512-1.985-0.512-3.040s0.186-2.080 0.512-3.040v-4.145h-5.455c-1.106 2.16-1.737 4.604-1.737 7.186s0.631 5.025 1.737 7.185l5.455-4.145z"></path>
<path fill="#ea4335" style="fill: var(--color4, #ea4335)" d="M16.327 6.364c2.397 0 4.549 0.807 6.241 2.393l4.683-4.589c-2.827-2.582-6.523-4.167-10.924-4.167-6.382 0-11.904 3.586-14.59 8.815l5.455 4.145c1.284-3.782 4.883-6.596 9.135-6.596z"></path>
</symbol>
<symbol id="icon-logout" viewBox="0 0 30 32">
<path fill="none" stroke="#003d29" style="stroke: var(--color1, #003d29)" stroke-linejoin="round" stroke-linecap="round" stroke-miterlimit="4" stroke-width="3.2" d="M10.667 28.8h-5.689c-0.754 0-1.478-0.3-2.011-0.833s-0.833-1.257-0.833-2.011v-19.911c0-0.754 0.3-1.478 0.833-2.011s1.257-0.833 2.011-0.833h5.689M20.622 23.111l7.111-7.111M27.733 16l-7.111-7.111M27.733 16h-17.067"></path>
</symbol>
<symbol id="icon-phone" viewBox="0 0 32 32">
<path fill="none" stroke="#003d29" style="stroke: var(--color1, #003d29)" stroke-linejoin="round" stroke-linecap="round" stroke-miterlimit="4" stroke-width="3" d="M20.067 7.667c1.302 0.254 2.499 0.891 3.437 1.829s1.575 2.135 1.829 3.437M20.067 2.333c2.706 0.301 5.229 1.512 7.155 3.436s3.141 4.445 3.445 7.151M29.334 23.56v4c0.002 0.371-0.074 0.739-0.223 1.079s-0.367 0.646-0.641 0.897-0.597 0.442-0.948 0.561c-0.352 0.119-0.725 0.163-1.094 0.13-4.103-0.446-8.044-1.848-11.507-4.093-3.222-2.047-5.953-4.778-8-8-2.253-3.478-3.656-7.439-4.093-11.56-0.033-0.369 0.010-0.74 0.129-1.091s0.308-0.673 0.558-0.947c0.25-0.273 0.553-0.492 0.892-0.641s0.705-0.227 1.075-0.227h4c0.647-0.006 1.274 0.223 1.765 0.645s0.811 1.008 0.902 1.649c0.169 1.28 0.482 2.537 0.933 3.747 0.179 0.477 0.218 0.996 0.112 1.495s-0.353 0.956-0.712 1.319l-1.693 1.693c1.898 3.338 4.662 6.102 8 8l1.693-1.693c0.362-0.359 0.82-0.606 1.319-0.712s1.017-0.067 1.494 0.112c1.21 0.451 2.467 0.764 3.747 0.933 0.648 0.091 1.239 0.418 1.662 0.917s0.648 1.136 0.631 1.79z"></path>
</symbol>
<symbol id="icon-settings" viewBox="0 0 30 32">
<path fill="none" stroke="#003d29" style="stroke: var(--color1, #003d29)" stroke-linejoin="round" stroke-linecap="round" stroke-miterlimit="4" stroke-width="2.8235" d="M15.059 19.765c2.079 0 3.765-1.686 3.765-3.765s-1.685-3.765-3.765-3.765c-2.079 0-3.765 1.685-3.765 3.765s1.685 3.765 3.765 3.765z"></path>
<path fill="none" stroke="#003d29" style="stroke: var(--color1, #003d29)" stroke-linejoin="round" stroke-linecap="round" stroke-miterlimit="4" stroke-width="2.8235" d="M24.346 19.765c-0.167 0.379-0.217 0.798-0.143 1.205s0.268 0.783 0.557 1.078l0.075 0.075c0.233 0.233 0.418 0.51 0.545 0.815s0.191 0.631 0.191 0.961c0 0.33-0.065 0.657-0.191 0.961s-0.312 0.581-0.545 0.815-0.51 0.418-0.815 0.545c-0.305 0.126-0.631 0.191-0.961 0.191s-0.656-0.065-0.961-0.191c-0.305-0.126-0.581-0.312-0.814-0.545l-0.075-0.075c-0.296-0.289-0.671-0.483-1.078-0.557s-0.827-0.024-1.205 0.143c-0.371 0.159-0.688 0.423-0.911 0.76s-0.343 0.731-0.344 1.135v0.213c0 0.666-0.264 1.304-0.735 1.775s-1.109 0.735-1.775 0.735-1.304-0.264-1.775-0.735c-0.471-0.471-0.735-1.109-0.735-1.775v-0.113c-0.010-0.415-0.144-0.818-0.386-1.156s-0.579-0.595-0.969-0.739c-0.379-0.167-0.798-0.217-1.205-0.143s-0.783 0.268-1.078 0.557l-0.075 0.075c-0.233 0.233-0.51 0.418-0.815 0.545s-0.631 0.191-0.961 0.191c-0.33 0-0.656-0.065-0.961-0.191s-0.581-0.311-0.815-0.545c-0.233-0.233-0.418-0.51-0.545-0.814s-0.191-0.631-0.191-0.961 0.065-0.656 0.191-0.961c0.126-0.305 0.311-0.581 0.545-0.815l0.075-0.075c0.289-0.296 0.483-0.671 0.557-1.078s0.024-0.827-0.143-1.205c-0.159-0.371-0.423-0.688-0.76-0.911s-0.731-0.343-1.135-0.344h-0.213c-0.666 0-1.304-0.264-1.775-0.735s-0.735-1.109-0.735-1.775c0-0.666 0.264-1.304 0.735-1.775s1.109-0.735 1.775-0.735h0.113c0.415-0.010 0.818-0.144 1.156-0.386s0.595-0.579 0.739-0.969c0.167-0.379 0.217-0.798 0.143-1.205s-0.268-0.783-0.557-1.078l-0.075-0.075c-0.233-0.233-0.418-0.51-0.545-0.815s-0.191-0.631-0.191-0.961c0-0.33 0.065-0.656 0.191-0.961s0.311-0.582 0.545-0.815c0.233-0.233 0.51-0.418 0.815-0.545s0.631-0.191 0.961-0.191c0.33 0 0.656 0.065 0.961 0.191s0.582 0.311 0.815 0.545l0.075 0.075c0.296 0.289 0.671 0.483 1.078 0.557s0.827 0.024 1.205-0.143h0.1c0.371-0.159 0.688-0.423 0.911-0.76s0.343-0.731 0.344-1.135v-0.213c0-0.666 0.264-1.304 0.735-1.775s1.109-0.735 1.775-0.735c0.666 0 1.304 0.264 1.775 0.735s0.735 1.109 0.735 1.775v0.113c0.002 0.404 0.121 0.798 0.344 1.135s0.54 0.601 0.911 0.76c0.379 0.167 0.799 0.217 1.205 0.143s0.783-0.268 1.079-0.557l0.075-0.075c0.233-0.233 0.51-0.418 0.814-0.545s0.631-0.191 0.961-0.191c0.33 0 0.656 0.065 0.961 0.191s0.581 0.311 0.814 0.545c0.233 0.233 0.418 0.51 0.545 0.815s0.191 0.631 0.191 0.961c0 0.33-0.065 0.656-0.191 0.961s-0.311 0.581-0.545 0.815l-0.075 0.075c-0.289 0.296-0.483 0.671-0.557 1.079s-0.024 0.827 0.143 1.205v0.1c0.159 0.371 0.423 0.688 0.76 0.911s0.731 0.343 1.135 0.344h0.213c0.666 0 1.304 0.264 1.775 0.735s0.735 1.109 0.735 1.775-0.264 1.304-0.735 1.775c-0.471 0.471-1.109 0.735-1.775 0.735h-0.113c-0.404 0.002-0.798 0.121-1.135 0.344s-0.601 0.539-0.76 0.911z"></path>
</symbol>
<symbol id="icon-profile" viewBox="0 0 30 32">
<path fill="none" stroke="#003d29" style="stroke: var(--color1, #003d29)" stroke-linejoin="round" stroke-linecap="round" stroke-miterlimit="4" stroke-width="3.2" d="M26.312 28.8v-2.844c0-1.509-0.599-2.956-1.666-4.023s-2.514-1.666-4.023-1.666h-11.378c-1.509 0-2.956 0.599-4.023 1.666s-1.666 2.514-1.666 4.023v2.844M20.623 8.889c0 3.142-2.547 5.689-5.689 5.689s-5.689-2.547-5.689-5.689c0-3.142 2.547-5.689 5.689-5.689s5.689 2.547 5.689 5.689z"></path>
</symbol>
<symbol id="icon-menu" viewBox="0 0 32 32">
<path fill="none" stroke="#003d29" style="stroke: var(--color1, #003d29)" stroke-linejoin="round" stroke-linecap="round" stroke-miterlimit="4" stroke-width="2.6667" d="M24 13.333h-16"></path>
<path fill="none" stroke="#003d29" style="stroke: var(--color1, #003d29)" stroke-linejoin="round" stroke-linecap="round" stroke-miterlimit="4" stroke-width="2.6667" d="M28 8h-24"></path>
<path fill="none" stroke="#003d29" style="stroke: var(--color1, #003d29)" stroke-linejoin="round" stroke-linecap="round" stroke-miterlimit="4" stroke-width="2.6667" d="M28 18.667h-24"></path>
<path fill="none" stroke="#003d29" style="stroke: var(--color1, #003d29)" stroke-linejoin="round" stroke-linecap="round" stroke-miterlimit="4" stroke-width="2.6667" d="M24 24h-16"></path>
</symbol>
<symbol id="icon-notepad" viewBox="0 0 33 32">
<path fill="#e1ceff" style="fill: var(--color5, #e1ceff)" d="M14.586 14.080l0.327-1.44 2.613 1.12-0.653 0.96-1.797 0.64-0.49-1.28z"></path>
<path fill="#e1ceff" style="fill: var(--color5, #e1ceff)" d="M9.359 27.040l0.163-2.4 4.083 0.64 5.227 0.48 3.103 0.32 2.94 0.64 2.45-11.2 1.47-5.92 1.143-1.44-2.287 20.32-0.817 0.32-4.083-0.32-4.737-0.48-3.92-0.8h-3.103l-1.633-0.16z"></path>
<path fill="#e1ceff" style="fill: var(--color5, #e1ceff)" d="M14.913 12.48l-11.433 2.88v1.28l11.27-2.56 0.163-1.6z"></path>
<path fill="#031e13" style="fill: var(--color2, #031e13)" d="M30.181 5.959c-0.122-0.143-0.101-0.112-1.306-0.253-0.354-0.993-1.385-1.714-2.453-1.716-0.001 0-0.002 0-0.003 0-0.889 0-1.735 0.501-2.191 1.238-0.284-0.025-0.565-0.045-0.848-0.068-0.053-0.104-0.065-0.126-0.077-0.16-0.353-0.995-1.385-1.718-2.455-1.719-0.001 0-0.002 0-0.003 0-1.015 0-1.975 0.651-2.359 1.566-0.097-0.004-0.199-0.008-0.298-0.012-0.104-0.273-0.080-0.214-0.085-0.227-0.353-0.994-1.385-1.717-2.455-1.719-0.001 0-0.002 0-0.003 0-1.067 0-2.146 0.725-2.454 1.836-0.102-0.001-0.724-0.001-0.939-0.002-0.314 0.034-0.589-0.168-0.756 0.536-0.153 0.648-0.539 2.515-1.803 8.157l-6.422 1.421c-0.948 0.21-1.52 1.234-1.339 2.186 0.089 0.465 0.357 0.913 0.849 1.239 0.372 0.247 0.813 0.361 1.239 0.267h-0l4.786-1.059c-0.924 4.155-1.842 6.602-1.517 7.073 0.166 0.242 1.234 0.455 2.028 0.581-0.227 1.976-0.393 2.161-0.136 2.374 0.063 0.052 0.141 0.076 0.225 0.078 2.972-0.066 5.808 0.325 8.807 0.741 7.217 1 7.709 0.708 8.931 0.787 0.067 0.009 0.124-0.003 0.185-0.031 0.669-0.106 0.694-0.184 0.716-0.435 0.513-6.015 1.669-13.905 2.579-19.851 0.081-0.528 0.342-1.291 0.198-1.864-0.069-0.275-0.413-0.79-0.642-0.966v0zM28.095 5.618c-1.044-0.117-2.070-0.224-3.092-0.321 0.907-1.008 2.432-0.792 3.092 0.321zM22.616 5.1c-1.132-0.086-2.267-0.158-3.408-0.213 0.827-1.41 2.799-1.166 3.408 0.213zM15.648 3.549c0.787 0.001 1.545 0.53 1.814 1.26-1.107-0.039-2.292-0.063-3.568-0.076 0.479-1.208 1.824-1.208 1.754-1.184zM16.299 13.345c0.023 0.365 0.148 0.746 0.235 1.112-0.372 0.294-0.753 0.577-1.114 0.803-0.107-0.063-0.28-0.234-0.364-0.386-0.059-0.107-0.041-0.4 0.032-0.514 0.184-0.289-0.158-0.383-0.099-0.79 0.026-0.179 0.146-0.462 0.236-0.575 0.211 0.070 1.027 0.335 1.073 0.35v0zM5.217 17.593c-0.087-0.072-0.394-0.090-0.611-0.895 0.845 0.054 8.661-1.823 9.749-2.074-0.011 0.389 0.091 0.593 0.336 0.872-3.518 0.779-5.882 1.302-9.474 2.096v0zM14.349 13.95c-10.533 2.415-9.518 2.002-9.838 2.122-0.013-0.323 0.035-0.636 0.167-0.87l9.773-2.163c-0.126 0.321-0.18 0.574-0.102 0.91v0zM9.53 17.312c6.276-1.394 5.916-1.296 6-1.343 0.958-0.541 2.027-1.523 2.73-2.030 0.2-0.143 0.178-0.445-0.045-0.557-0.647-0.326-1.294-0.533-2.042-0.771-1.151-0.368-1.097-0.386-1.231-0.354l-4.524 1.001c0.247-1.094 1.494-6.781 1.741-7.875 0.061-0 0.888 0.001 0.941 0.001 0.006 0.667 0.28 1.334 0.756 1.813-0.124 0.448 0.277 0.839 0.756 0.806 0.4-0.027 0.701-0.341 0.672-0.7s-0.378-0.629-0.778-0.601c-0.061 0.004-0.118 0.017-0.173 0.033-0.354-0.356-0.558-0.851-0.562-1.346 1.659 0.015 3.161 0.051 4.55 0.11-0.076 0.732 0.177 1.498 0.689 2.042-0.198 0.457 0.207 0.92 0.729 0.884 0.4-0.027 0.701-0.341 0.672-0.701s-0.378-0.628-0.779-0.601c-0.029 0.002-0.057 0.009-0.085 0.014-0.422-0.416-0.633-1.027-0.559-1.605 1.665 0.077 3.306 0.189 4.969 0.335-0.222 0.861 0.059 1.827 0.704 2.456-0.066 0.421 0.319 0.772 0.773 0.741 0.4-0.027 0.701-0.341 0.672-0.7-0.036-0.435-0.54-0.734-1.017-0.545-0.479-0.495-0.671-1.25-0.457-1.897 1.59 0.147 3.178 0.317 4.841 0.516-1.818 5.408-3.77 14.278-4.842 19.851-6.018-1.292-14.198-1.32-16.739-2.136 0.095-0.912 0.98-3.827 1.64-6.841v0zM9.756 26.915c0.074-0.626 0.145-0.997 0.225-1.692 2.326 0.307 6.502 0.592 10.055 0.972 2.701 0.289 4.674 0.817 4.852 0.817 0.164 0 0.302-0.116 0.33-0.271l0.001 0c0.102-0.328 1.155-6.322 3.008-13.565-0.6 4.775-1.046 10.478-1.354 15.264-5.97 0-11.265-1.565-17.119-1.525z"></path>
<path fill="#c0a0f4" style="fill: var(--color6, #c0a0f4)" d="M20.229 14.786c0.53 0.254 1.197 0.3 1.832 0.128 0.194-0.053 0.376-0.131 0.551-0.208 0.747-0.324 0.89-0.29 1.42 0.27 0.126 0.133 0.256 0.27 0.409 0.39 0.624 0.487 1.536 0.546 2.218 0.149 0.381-0.221 0.041-0.787-0.343-0.565-0.442 0.256-1.055 0.216-1.457-0.098-0.114-0.089-0.222-0.203-0.335-0.323-1.952-2.059-2.227 1.364-5.247-1.112-0.341-0.279-0.771 0.226-0.431 0.504 0.411 0.337 0.838 0.604 1.382 0.865v0z"></path>
<path fill="#031e13" style="fill: var(--color2, #031e13)" d="M17.119 19.311c0.471-0.239 0.976-0.58 1.404-0.463 0.406 0.112 0.675 0.616 1.111 0.976 0.941 0.776 2.191 0.512 2.345 0.517 0.565-0.049 1.207-0.104 1.761-0.309 0.413-0.153 0.183-0.767-0.237-0.616-0.532 0.197-1.217 0.239-1.874 0.296-1.904 0.182-1.777-1.18-2.924-1.496-0.698-0.192-1.306 0.213-1.895 0.512-1.605 0.816-3.711 0.513-5.008-0.72-0.317-0.303-0.787 0.168-0.468 0.472 1.498 1.425 3.931 1.775 5.785 0.833v0z"></path>
</symbol>
<symbol id="icon-book" viewBox="0 0 33 32">
<path fill="#ffbfc6" style="fill: var(--color1, #ffbfc6)" d="M25.039 15.419c-1.075-0.351-2.936 0.926-3.732 1.609v10.968l3.135 1.024 2.389-1.024c0.697-1.852 2.090-5.615 2.090-5.849 0-0.293 0.149-3.217-0.299-4.387s-2.239-1.901-3.583-2.34z"></path>
<path fill="#ffbfc6" style="fill: var(--color1, #ffbfc6)" d="M8.767 21.853v-19.303l-3.284 0.439-1.642 1.755v19.303l2.239-2.047 2.687-0.146z"></path>
<path fill="#031e13" style="fill: var(--color2, #031e13)" d="M3.255 25.054v0.055c0 0.441 0.113 0.883 0.225 1.269 0.507 1.159 1.577 2.042 2.873 2.152 0.169 0 0.338 0 0.451 0.055h0.394c1.014-0.055 1.127 0 2.422-0.055 2.253-0.11 3.662-0.166 4.957-0.276 0.282 0 0.563-0.055 0.845-0.055 0.282 0.386 0.563 0.828 1.014 1.159 1.014 0.828 2.479 0.552 3.605 0 0.282-0.11 0.563-0.331 0.732-0.441 0.282-0.166 0.62-0.166 0.901 0 0.169 0.166 0.507 0.331 0.732 0.441 1.127 0.552 2.591 0.828 3.605 0 0.507-0.386 0.845-0.883 1.127-1.324 0.563-0.938 1.014-1.931 1.352-2.98 0.338-0.993 0.62-2.042 0.789-3.090 0.113-0.552 0.169-1.048 0.169-1.6s-0.056-1.159-0.225-1.656c-0.338-1.104-1.127-1.987-2.084-2.594-0.394-0.221-0.789-0.386-1.183-0.497 0.113-2.207 0.169-4.415 0.282-6.622l0.113-3.421c0-0.276 0-0.552 0-0.883s-0.113-0.662-0.282-0.993c-0.338-0.607-0.958-1.104-1.634-1.214-0.169-0.055-0.394-0.055-0.507-0.055-0.056 0-1.408 0-1.296 0-9.689-0.221-7.436-0.166-12.224-0.221h-3.493c-1.408 0-2.76 0.828-3.324 2.042-0.113 0.331-0.225 0.662-0.282 0.993-0.056 0.386 0-0.607-0.056 19.811v0zM9.62 27.648c-0.507 0-1.070-0.055-1.577-0.055-1.070 0-1.127 0-1.183-0.055-0.113 0-0.225 0-0.338-0.055-0.845-0.11-1.634-0.717-1.972-1.545-0.113-0.276-0.169-0.607-0.169-0.883 0-0.441 0.113-0.883 0.338-1.324 0.225-0.386 0.62-0.717 1.014-0.938 0.225-0.11 0.451-0.166 0.676-0.221 0.113 0 0.169-0.055 0.282-0.055h1.183c0.958 0 1.915-0.055 2.929-0.11 0.845-0.055 1.634-0.166 2.479-0.331 0.169 0.993 0.394 1.931 0.732 2.869 0.338 0.993 0.732 2.042 1.352 2.98 0 0 0 0.055 0.056 0.055-1.69-0.166-3.211-0.276-5.802-0.331v0zM10.409 3.312c0.056 0 12.337-0.11 12.224-0.11h1.69c0.451 0.055 0.845 0.331 1.070 0.717 0.113 0.221 0.169 0.441 0.225 0.662v0.828l0.113 3.421c0.113 2.207 0.169 4.415 0.282 6.622-0.676-0.166-1.352-0.166-2.028-0.055-1.070 0.221-2.084 0.828-2.704 1.711 0.732-0.773 1.69-1.269 2.76-1.38 1.014-0.11 2.084 0.11 2.929 0.662s1.465 1.38 1.69 2.318c0.282 0.938 0.113 1.931-0.113 2.925-0.451 1.987-1.127 4.028-2.197 5.684-0.282 0.386-0.563 0.828-0.901 1.048-0.732 0.552-1.915 0.11-2.422-0.166-0.225-0.11-0.394-0.221-0.62-0.386-0.282-0.221-0.676-0.331-1.070-0.331s-0.732 0.11-1.070 0.331c-0.225 0.166-0.394 0.276-0.62 0.386-0.62 0.276-1.746 0.717-2.422 0.166-0.338-0.276-0.62-0.662-0.901-1.048-0.563-0.828-0.958-1.766-1.296-2.759-0.338-0.938-0.62-1.931-0.845-2.98-0.225-0.993-0.394-1.987-0.113-2.925 0.225-0.938 0.845-1.766 1.69-2.318s1.859-0.828 2.929-0.662c1.014 0.11 2.028 0.607 2.76 1.435-0.62-0.828-1.577-1.49-2.704-1.711-1.070-0.221-2.253-0.055-3.267 0.497-0.958 0.552-1.746 1.49-2.084 2.594-0.169 0.552-0.225 1.104-0.225 1.656s0.113 1.104 0.169 1.6v0.055c-1.239-0.221-2.591-0.386-3.831-0.441-0.056-3.090-0.113-6.181-0.169-9.216l-0.507-8.829h1.577zM4.325 5.74c0-0.11 0-0.221 0.056-0.331 0.056-0.221 0.113-0.441 0.225-0.662 0.394-0.883 1.352-1.435 2.31-1.435h1.915l-0.338 9.216c-0.113 2.98-0.169 5.96-0.169 8.94-0.169 0-0.282 0-0.451 0-0.394 0-0.732 0-1.127 0-0.169 0-0.338 0-0.507 0.055-0.338 0.055-0.676 0.166-0.958 0.331-0.338 0.166-0.62 0.386-0.901 0.607-0.056-1.435-0.056-17.769-0.056-16.721v0z"></path>
<path fill="#031e13" style="fill: var(--color2, #031e13)" d="M23.253 13.245c0.338-0.331 0.789-0.607 1.296-0.938-0.563-0.11-1.183-0.055-1.746 0.221s-1.070 0.717-1.352 1.214c-0.338 0.552-0.451 1.104-0.507 1.711 0 0.607 0.056 1.159 0.338 1.656 0.338-1.104 0.62-2.042 1.127-2.814 0.169-0.386 0.507-0.717 0.845-1.048z"></path>
</symbol>
<symbol id="icon-achievement" viewBox="0 0 33 32">
<path fill="#d5e27b" style="fill: var(--color3, #d5e27b)" d="M22.263 5.6c0.381 0.96 1.143 2.944 1.143 3.2l3.267-3.68-1.307-3.52-3.103 4z"></path>
<path fill="#d5e27b" style="fill: var(--color3, #d5e27b)" d="M9.849 20l-0.163-2.4 0.653-1.28 0.98-1.6 2.123-1.12 3.267 0.64 1.143 0.8 1.307 1.92 0.163 1.92-0.653 1.92-1.307 1.28-1.633 0.8h-2.123l-2.123-0.96-1.633-1.92z"></path>
<path fill="#d5e27b" style="fill: var(--color3, #d5e27b)" d="M14.282 30.4c-6.43 0-11.642-5.158-11.642-11.52s5.212-11.52 11.642-11.52c6.43 0 11.642 5.158 11.642 11.52s-5.212 11.52-11.642 11.52zM14.282 26.24c4.465 0 8.085-3.582 8.085-8s-3.62-8-8.085-8c-4.465 0-8.085 3.582-8.085 8s3.62 8 8.085 8z"></path>
<path fill="#031e13" style="fill: var(--color2, #031e13)" d="M24.511 25.275c1.136-1.828 1.733-3.985 1.669-6.105 0.253-3.567-1.057-6.682-3.416-8.914 0.152-0.167 0.305-0.333 0.456-0.5 1.315-0.025 2.633 0.066 3.931 0.274 1.206-1.128 2.507-2.348 3.694-3.497-0.041-0.109-0.091-0.238-0.142-0.365 0.15-0.227 0.020-0.48-0.208-0.532-0.955-0.219-2.677-0.451-3.692-0.664-0.311-0.928-0.743-2.622-1.046-3.464-0.040-0.112-0.136-0.197-0.253-0.225s-0.241 0.005-0.328 0.087c-1.242 1.164-2.237 2.715-3.217 4.092-0.062 0.087-0.081 0.198-0.051 0.3 0.248 0.855 0.819 2.213 1.119 3.15-0.262 0.29-0.529 0.579-0.792 0.868-3.372-2.822-8.229-3.804-12.514-2.031-0.14 0.032-0.27 0.069-0.365 0.114-3.598 1.679-6.275 5.162-6.949 9.041s0.811 7.912 3.635 10.683c5.191 5.093 14.706 3.74 18.469-2.314zM29.698 6.196c-0.849 0.847-1.96 1.972-2.79 2.795-0.9-0.056-1.869-0.088-2.845-0.216 0.603-0.665 2.712-2.972 2.785-3.072 0.835 0.165 1.979 0.332 2.85 0.493zM25.264 2.286c0.279 0.902 0.661 2.348 0.927 3.094l-2.629 2.889c-0.29-0.823-0.703-1.847-0.92-2.539 0.809-1.145 1.652-2.424 2.621-3.444zM21.757 10.308c-0.557 0.61-1.117 1.217-1.681 1.824-3.267-2.741-8.168-2.76-11.286 0.033-2.765 2.478-3.605 6.607-1.997 9.817 1.382 2.758 4.803 4.797 7.961 4.797 7.531 0 10.852-9.198 5.849-14.172 0.564-0.607 1.125-1.216 1.683-1.826 4.847 4.61 3.881 12.376-0.713 16.115-6.314 5.139-17.645 1.124-18.146-8.052-0.352-9.961 10.972-14.674 18.329-8.536zM15.781 16.664c-0.862-0.661-1.645-0.351-1.693-0.351-0.933 0.278-1.533 1.362-1.267 2.29s1.352 1.539 2.294 1.291c1.053-0.278 1.794-1.622 1.142-2.701 0.525-0.543 1.048-1.087 1.57-1.635 3.031 3.353-0.591 8.722-5.116 6.7-1.258-0.562-2.167-1.582-2.494-2.799-0.452-1.682 0.083-3.435 1.363-4.465 1.658-1.334 4.038-1.285 5.731 0.076-0.509 0.534-1.019 1.065-1.53 1.594zM17.807 14.549c-1.9-1.557-4.699-1.693-6.676-0.103-1.497 1.205-2.126 3.243-1.602 5.193 0.606 2.26 2.863 3.751 5.142 3.751 4.35 0 6.554-5.228 3.653-8.355 0.602-0.634 1.2-1.27 1.796-1.909 1.43 1.433 2.138 3.211 2.151 5.19 0.037 5.388-4.925 8.941-9.745 7.413-2.277-0.722-4.181-2.241-5.094-4.061-1.469-2.933-0.697-6.71 1.837-8.98 2.856-2.558 7.34-2.521 10.324-0.038-0.593 0.636-1.188 1.268-1.787 1.898z"></path>
<path fill="#031e13" style="fill: var(--color2, #031e13)" d="M3.414 7.868c-0.179-0.082-0.391-0.006-0.474 0.171s-0.006 0.387 0.173 0.469l2.218 1.022c0.18 0.082 0.391 0.005 0.474-0.171s0.006-0.387-0.173-0.469l-2.218-1.022z"></path>
<path fill="#031e13" style="fill: var(--color2, #031e13)" d="M6.91 8.209c0.149-0.127 0.166-0.35 0.037-0.498-0.457-0.524-0.808-1.119-1.044-1.77-0.066-0.184-0.271-0.279-0.456-0.213s-0.282 0.268-0.216 0.451c0.265 0.734 0.661 1.405 1.176 1.994 0.129 0.148 0.355 0.163 0.503 0.036z"></path>
<path fill="#031e13" style="fill: var(--color2, #031e13)" d="M8.73 4.93c-0.193-0.038-0.382 0.084-0.421 0.275-0.132 0.636-0.132 1.309 0 1.945 0.035 0.167 0.183 0.282 0.349 0.282 0.225 0 0.395-0.204 0.35-0.424-0.113-0.544-0.113-1.119 0-1.662 0.039-0.191-0.085-0.377-0.278-0.417z"></path>
</symbol>
<symbol id="icon-hierarchy" viewBox="0 0 33 32">
<path fill="#c5dbf2" style="fill: var(--color4, #c5dbf2)" d="M22.266 26.246v-3.898l0.884-0.433 3.98-0.144 2.8 0.289v2.888l-0.295 2.31-1.327 0.578-2.211-0.144h-2.948l-0.59-0.289-0.295-1.155z"></path>
<path fill="#c5dbf2" style="fill: var(--color4, #c5dbf2)" d="M2.81 26.823v-4.332l3.537-0.722 2.948 0.144 1.179 0.866 0.147 2.599-0.737 2.166-1.474 0.289-2.211-0.144-2.8-0.144-0.59-0.722z"></path>
<path fill="#031e13" style="fill: var(--color2, #031e13)" d="M29.579 21.548c-0.34-0.167-0.794-0.167-1.020-0.167-0.057 0-2.438 0-2.324 0 0.057-0.333 0.057-0.722 0.113-1.055l0.057-0.833c0-0.278-0.057-0.611-0.17-0.888-0.283-0.555-0.794-1.055-1.474-1.166-0.17-0.056-0.34-0.056-0.51-0.056-0.057 0-1.304-0.056-1.247-0.056-2.097-0.056-4.195-0.111-6.293-0.111 0.057-0.167 0.113-0.278 0.17-0.444 0.17-0.666 0.17-1.333 0-1.944-0.057-0.167-0.113-0.278-0.17-0.444 0.057 0 3.401 0 3.345 0h0.624c0.283 0 0.567-0.056 0.794-0.167 0.51-0.167 0.964-0.555 1.247-1 0.113-0.222 0.227-0.5 0.283-0.722 0.057-0.278 0.057-0.555 0.057-0.722l-0.057-2.499-0.057-2.499v-0.611c0-0.222-0.057-0.5-0.17-0.722-0.17-0.555-0.51-0.944-0.907-1.166s-0.964-0.278-1.361-0.278c-1.701 0.111-2.268 0.111-3.798 0.222 1.531 0.111 2.098 0.111 3.741 0.222 0.397 0 0.794 0.111 1.077 0.278 0.283 0.222 0.51 0.5 0.624 0.833 0.057 0.167 0.057 0.333 0.057 0.5v0.611l-0.113 4.998c0 0.222 0 0.389-0.057 0.5-0.057 0.167-0.113 0.278-0.17 0.389-0.17 0.278-0.397 0.444-0.737 0.555-0.17 0.056-0.284 0.056-0.453 0.056h-0.624c-0.113 0-3.855 0-3.798 0-0.057 0-4.082 0-3.798 0-0.227 0-0.34 0-0.51-0.056s-0.283-0.111-0.397-0.167c-0.283-0.167-0.454-0.389-0.567-0.666-0.057-0.167-0.113-0.278-0.113-0.444v-0.611c0-1.444-0.057-2.499-0.113-4.998 0-0.222 0-0.389 0-0.555s0.113-0.333 0.17-0.5c0.17-0.278 0.454-0.555 0.794-0.666 0.17-0.056 0.34-0.111 0.51-0.111l0.624-0.056c1.644-0.056 2.268-0.111 3.798-0.222-1.531-0.111-2.154-0.111-3.798-0.222l-0.624-0.056c-0.227 0-0.454 0.056-0.737 0.111-0.454 0.167-0.85 0.444-1.134 0.889-0.113 0.222-0.227 0.444-0.283 0.666s-0.057 0.5-0.057 0.666l-0.113 2.61c-0.057 1.777-0.057 2.443-0.057 3.11 0 0.278 0.057 0.5 0.113 0.777 0.17 0.5 0.51 0.944 0.964 1.222 0.227 0.167 0.51 0.278 0.737 0.333 0.283 0.056 0.567 0.056 0.737 0.056 0.057 0 3.968 0 3.685 0-0.057 0.167-0.113 0.278-0.17 0.444-0.17 0.611-0.17 1.277 0 1.944 0.057 0.167 0.113 0.278 0.17 0.444-5.102 0-6.463 0.111-7.313 0.167h-0.397c-0.17 0-0.34 0-0.51 0.056-0.624 0.167-1.19 0.611-1.474 1.166-0.113 0.278-0.17 0.611-0.17 0.888l0.057 0.833c0.057 0.333 0.057 0.722 0.113 1.055h-2.324c-0.227 0-0.68 0-1.020 0.167s-0.624 0.444-0.794 0.777c-0.17 0.333-0.17 0.777-0.17 0.944 0 0.833 0.057 1.666 0.113 3.054 0 0.222 0 0.611 0.17 0.888s0.397 0.5 0.737 0.666c0.283 0.111 0.68 0.111 0.907 0.111 0.397-0.056 1.077-0.056 2.381-0.222-0.34 0.056-0.907 0-1.417 0l-0.794-0.056c-0.283 0-0.454-0.056-0.624-0.167s-0.283-0.278-0.397-0.444c-0.057-0.167-0.057-0.333-0.057-0.611 0.057-1.444 0.113-2.277 0.113-3.054 0-0.278 0-0.389 0.113-0.555 0.057-0.111 0.17-0.222 0.34-0.278s0.227-0.056 0.51-0.056c0.113 0 2.494 0 2.381 0 0.057 0 2.494 0 2.381 0 0.34 0 0.397 0 0.51 0.056s0.227 0.167 0.34 0.278c0.057 0.111 0.057 0.222 0.113 0.555 0 0.889 0.057 1.555 0.113 3.054 0 0.278 0.057 0.444-0.057 0.611-0.057 0.167-0.227 0.333-0.397 0.444s-0.34 0.111-0.624 0.167c-0.397 0.056-1.077 0.056-2.381 0.222 0.51 0.056 1.020 0.111 1.587 0.167l0.794 0.056c0.227 0 0.567 0.056 0.907-0.111 0.283-0.111 0.567-0.333 0.737-0.666 0.17-0.278 0.17-0.666 0.17-0.889 0.057-1.499 0.113-2.166 0.113-3.054 0-0.222 0-0.666-0.17-0.944-0.17-0.333-0.454-0.611-0.794-0.777s-0.794-0.167-1.020-0.167c-0.057 0-2.438 0-2.324 0 0.057-0.444 0.113-0.833 0.17-1.166l0.057-0.833c0-0.222 0.113-0.444 0.227-0.666 0.227-0.389 0.68-0.666 1.134-0.722h0.737l0.85 0.056c2.211 0.056 4.422 0.111 6.633 0.111 5.215 0 6.689-0.111 7.483-0.167 0.397 0 0.567-0.056 0.737 0 0.454 0.056 0.85 0.333 1.134 0.722 0.113 0.222 0.227 0.444 0.227 0.666l0.057 0.833c0.057 0.333 0.057 0.722 0.113 1.055h-2.324c-0.227 0-0.68 0-1.020 0.167s-0.624 0.444-0.794 0.777-0.17 0.777-0.17 0.944c0 0.833 0.057 1.666 0.113 3.054 0 0.222 0 0.611 0.17 0.888s0.397 0.5 0.737 0.666c0.283 0.111 0.68 0.111 0.907 0.111 0.397-0.056 1.077-0.056 2.381-0.222-0.51-0.056-1.020-0.111-1.587-0.167l-0.794-0.056c-0.284 0-0.454-0.056-0.624-0.167s-0.283-0.278-0.397-0.444c-0.057-0.167-0.057-0.333-0.057-0.611 0.057-1.388 0.113-2.221 0.113-3.054 0-0.278 0-0.389 0.113-0.555 0.057-0.111 0.17-0.222 0.34-0.278s0.227-0.056 0.51-0.056c0.113 0 2.494 0 2.381 0 0.057 0 2.494 0 2.381 0 0.34 0 0.397 0 0.51 0.056s0.227 0.167 0.34 0.278c0.057 0.111 0.057 0.222 0.113 0.555 0 0.888 0.057 1.555 0.113 3.054 0 0.278 0.057 0.444-0.057 0.611-0.057 0.167-0.227 0.333-0.397 0.444s-0.34 0.111-0.624 0.167c-0.397 0.056-1.077 0.056-2.381 0.222 0.51 0.056 1.020 0.111 1.587 0.167l0.794 0.056c0.227 0 0.567 0.056 0.907-0.111 0.283-0.111 0.567-0.333 0.737-0.666 0.17-0.278 0.17-0.666 0.17-0.888 0.057-1.499 0.113-2.166 0.113-3.054 0-0.222 0-0.666-0.17-0.944-0.113-0.278-0.34-0.555-0.68-0.722z"></path>
</symbol>
</defs>
</svg>
